{"title":"Le Mari de la Coiffeuse","uid":5461882,"size":1384600317,"categoryP":"video","categoryS":"movies","magnet":"?xt=urn:btih:8ac36f983b2e736c96bc9ff61432da1bc242a483&amp;dn=Le+Mari+de+la+Coiffeuse&amp;tr=udp%3A%2F%2Ftracker.openbittorrent.com%3A80&amp;tr=udp%3A%2F%2Fopen.demonii.com%3A1337&amp;tr=udp%3A%2F%2Ftracker.coppersurfer.tk%3A6969&amp;tr=udp%3A%2F%2Fexodus.desync.com%3A6969","seeders":5,"leechers":0,"uploader":"kepler42","files":3,"time":1269495447,"description":"ako The Hairdresser's Husband\n\nDelicious movie from Patrice Leconte\n  with sexy   Anna Galiena\n  and  subtle jean rochefort\n &lt;a href=&quot;\nhttp://www.imdb.fr/title/tt0100112/&quot; rel=&quot;nofollow&quot; target=&quot;_NEW&quot;&gt;\nhttp://www.imdb.fr/title/tt0100112/&lt;/a&gt;\n\n\nDVDRip\nQuality h264 encoding with Luminosity and Contrast enhancements\nEnglish subtitles Thanks Dubbing Brothers  \n\n\nGeneral\nComplete name                    : LeMariDeLaCoiffeuse DVDRip h264 Kepler42LMDLC.mp4\nFormat                           : MPEG-4\nFormat profile                   : Base Media\nCodec ID                         : isom\nFile size                        : 1.29 GiB\nDuration                         : 1h 18mn\nOverall bit rate                 : 2 362 Kbps\n\nVideo\nID                               : 1\nFormat                           : AVC\nFormat/Info                      : Advanced Video Codec\nFormat profile                   : &lt;a class=&quot;__cf_email__&quot; href=&quot;/cdn-cgi/l/email-protection&quot; data-cfemail=&quot;d39eb2babd939fe0fde3&quot;&gt;[email&amp;#160;protected]&lt;/a&gt;&lt;script cf-hash='f9e31' type=&quot;text/javascript&quot;&gt;\n/* &lt;![CDATA[ */!function(){try{var t=&quot;currentScript&quot;in document?document.currentScript:function(){for(var t=document.getElementsByTagName(&quot;script&quot;),e=t.length;e--;)if(t[e].getAttribute(&quot;cf-hash&quot;))return t[e]}();if(t&amp;&amp;t.previousSibling){var e,r,n,i,c=t.previousSibling,a=c.getAttribute(&quot;data-cfemail&quot;);if(a){for(e=&quot;&quot;,r=parseInt(a.substr(0,2),16),n=2;a.length-n;n+=2)i=parseInt(a.substr(n,2),16)^r,e+=String.fromCharCode(i);e=document.createTextNode(e),c.parentNode.replaceChild(e,c)}}}catch(u){}}();/* ]]&gt; */&lt;/script&gt;\nFormat settings, CABAC           : Yes\nFormat settings, ReFrames        : 3 frames\nCodec ID                         : avc1\nCodec ID/Info                    : Advanced Video Coding\nDuration                         : 1h 18mn\nBit rate mode                    : Variable\nBit rate                         : 2 201 Kbps\nWidth                            : 720 pixels\nHeight                           : 432 pixels\nDisplay aspect ratio             : 1.667\nFrame rate mode                  : Constant\nFrame rate                       : 25.000 fps\nStandard                         : PAL\nResolution                       : 8 bits\nColorimetry                      : 4:2:0\nScan type                        : Progressive\nBits/(Pixel*Frame)               : 0.283\nStream size                      : 1.20 GiB (93%)\nLanguage                         : French\n\nAudio\nID                               : 2\nFormat                           : AAC\nFormat/Info                      : Advanced Audio Codec\nFormat version                   : Version 4\nFormat profile                   : LC\nFormat settings, SBR             : No\nCodec ID                         : 40\nDuration                         : 1h 18mn\nBit rate mode                    : Constant\nBit rate                         : 160 Kbps\nChannel(s)                       : 2 channels\nChannel positions                : Front: L R\nSampling rate                    : 48.0 KHz\nStream size                      : 89.4 MiB (7%)\nLanguage                         : French\n\n","torrent":{"xt":"urn:btih:8ac36f983b2e736c96bc9ff61432da1bc242a483","amp;dn":"Le+Mari+de+la+Coiffeuse","amp;tr":["udp%3A%2F%2Ftracker.openbittorrent.com%3A80","udp%3A%2F%2Fopen.demonii.com%3A1337","udp%3A%2F%2Ftracker.coppersurfer.tk%3A6969","udp%3A%2F%2Fexodus.desync.com%3A6969"],"infoHash":"8ac36f983b2e736c96bc9ff61432da1bc242a483","infoHashBuffer":{"type":"Buffer","data":[138,195,111,152,59,46,115,108,150,188,159,246,20,50,218,27,194,66,164,131]},"announce":[],"urlList":[]}}